<mxfile host="Electron" modified="2023-12-11T00:37:17.303Z" agent="Mozilla/5.0 (Windows NT 10.0; Win64; x64) AppleWebKit/537.36 (KHTML, like Gecko) draw.io/22.1.2 Chrome/114.0.5735.289 Electron/25.9.4 Safari/537.36" etag="C-KXBFe8Hpe3QjK1JAzQ" version="22.1.2" type="device">
  <diagram name="Page-1" id="edf60f1a-56cd-e834-aa8a-f176f3a09ee4">
    <mxGraphModel dx="1232" dy="1195" grid="1" gridSize="10" guides="1" tooltips="1" connect="1" arrows="1" fold="1" page="1" pageScale="1" pageWidth="850" pageHeight="1100" background="none" math="0" shadow="0">
      <root>
        <mxCell id="0" />
        <mxCell id="1" parent="0" />
        <mxCell id="vUtEQ1WDIaLr55wLkuLu-14" value="" style="edgeStyle=orthogonalEdgeStyle;rounded=0;orthogonalLoop=1;jettySize=auto;html=1;" parent="1" source="60e70716793133e9-4" target="vUtEQ1WDIaLr55wLkuLu-13" edge="1">
          <mxGeometry relative="1" as="geometry" />
        </mxCell>
        <mxCell id="vUtEQ1WDIaLr55wLkuLu-15" value="ZED SDK + POINT CLOUD PROJECTION" style="edgeStyle=orthogonalEdgeStyle;rounded=0;orthogonalLoop=1;jettySize=auto;html=1;" parent="1" source="60e70716793133e9-4" target="vUtEQ1WDIaLr55wLkuLu-13" edge="1">
          <mxGeometry x="-0.6842" relative="1" as="geometry">
            <mxPoint as="offset" />
          </mxGeometry>
        </mxCell>
        <mxCell id="60e70716793133e9-4" value="ZED CAMERA SVO RECORDINGS" style="rounded=0;whiteSpace=wrap;html=1;shadow=0;labelBackgroundColor=none;strokeWidth=1;fontFamily=Verdana;fontSize=15;align=center;" parent="1" vertex="1">
          <mxGeometry x="430" y="40" width="120" height="60" as="geometry" />
        </mxCell>
        <mxCell id="3mscPy9-ud9Tai3cdkcG-6" value="VGG IMAGE ANNOTATOR" style="edgeStyle=orthogonalEdgeStyle;rounded=0;orthogonalLoop=1;jettySize=auto;html=1;" parent="1" source="vUtEQ1WDIaLr55wLkuLu-13" target="3mscPy9-ud9Tai3cdkcG-5" edge="1">
          <mxGeometry relative="1" as="geometry" />
        </mxCell>
        <mxCell id="vUtEQ1WDIaLr55wLkuLu-13" value="2D IMAGES" style="rounded=0;whiteSpace=wrap;html=1;shadow=0;labelBackgroundColor=none;strokeWidth=1;fontFamily=Verdana;fontSize=15;align=center;" parent="1" vertex="1">
          <mxGeometry x="355" y="182" width="120" height="60" as="geometry" />
        </mxCell>
        <mxCell id="vUtEQ1WDIaLr55wLkuLu-23" value="MATTERPORT MASK R-CNN" style="edgeStyle=orthogonalEdgeStyle;rounded=0;orthogonalLoop=1;jettySize=auto;html=1;" parent="1" source="vUtEQ1WDIaLr55wLkuLu-20" target="vUtEQ1WDIaLr55wLkuLu-22" edge="1">
          <mxGeometry relative="1" as="geometry" />
        </mxCell>
        <mxCell id="vUtEQ1WDIaLr55wLkuLu-20" value="AUGMENTED IMAGES" style="whiteSpace=wrap;html=1;fontSize=15;fontFamily=Verdana;rounded=0;shadow=0;labelBackgroundColor=none;strokeWidth=1;" parent="1" vertex="1">
          <mxGeometry x="355" y="456" width="120" height="60" as="geometry" />
        </mxCell>
        <mxCell id="vUtEQ1WDIaLr55wLkuLu-22" value="LEAF MASK" style="whiteSpace=wrap;html=1;fontSize=15;fontFamily=Verdana;rounded=0;shadow=0;labelBackgroundColor=none;strokeWidth=1;" parent="1" vertex="1">
          <mxGeometry x="355" y="607" width="120" height="60" as="geometry" />
        </mxCell>
        <mxCell id="3mscPy9-ud9Tai3cdkcG-4" style="edgeStyle=orthogonalEdgeStyle;rounded=0;orthogonalLoop=1;jettySize=auto;html=1;exitX=0.5;exitY=1;exitDx=0;exitDy=0;entryX=0.5;entryY=0;entryDx=0;entryDy=0;" parent="1" source="3mscPy9-ud9Tai3cdkcG-1" target="vUtEQ1WDIaLr55wLkuLu-13" edge="1">
          <mxGeometry relative="1" as="geometry" />
        </mxCell>
        <mxCell id="3mscPy9-ud9Tai3cdkcG-1" value="GO PRO CAMERA IMAGES" style="rounded=0;whiteSpace=wrap;html=1;shadow=0;labelBackgroundColor=none;strokeWidth=1;fontFamily=Verdana;fontSize=15;align=center;" parent="1" vertex="1">
          <mxGeometry x="270" y="40" width="120" height="60" as="geometry" />
        </mxCell>
        <mxCell id="3mscPy9-ud9Tai3cdkcG-7" value="IMGAUG PYTHON LIBRARY" style="edgeStyle=orthogonalEdgeStyle;rounded=0;orthogonalLoop=1;jettySize=auto;html=1;exitX=0.5;exitY=1;exitDx=0;exitDy=0;entryX=0.5;entryY=0;entryDx=0;entryDy=0;" parent="1" source="3mscPy9-ud9Tai3cdkcG-5" target="vUtEQ1WDIaLr55wLkuLu-20" edge="1">
          <mxGeometry relative="1" as="geometry" />
        </mxCell>
        <mxCell id="3mscPy9-ud9Tai3cdkcG-5" value="ANNOTATED IMAGES" style="whiteSpace=wrap;html=1;fontSize=15;fontFamily=Verdana;rounded=0;shadow=0;labelBackgroundColor=none;strokeWidth=1;" parent="1" vertex="1">
          <mxGeometry x="355" y="315" width="120" height="60" as="geometry" />
        </mxCell>
      </root>
    </mxGraphModel>
  </diagram>
</mxfile>
